<svg xmlns="http://www.w3.org/2000/svg" xmlns:xlink="http://www.w3.org/1999/xlink" width="1920" height="1089" viewBox="0 0 1920 1089">
  <defs>
    <clipPath id="clip-Web_1920_7">
      <rect width="1920" height="1089"/>
    </clipPath>
  </defs>
  <g id="Web_1920_7" data-name="Web 1920 – 7" clip-path="url(#clip-Web_1920_7)">
    <rect width="1920" height="1089" fill="rgba(252,209,138,0.03)"/>
    <g id="Group_3" data-name="Group 3">
      <g id="Group_2" data-name="Group 2">
        <g id="Stonebranch_-Home_-Product" data-name="Stonebranch,-Home,-Product" transform="translate(25.007 242.036)">
          <g id="Group-4" transform="translate(773.578 483.247) rotate(180)">
            <path id="Polygon-Copy-2" d="M18.522,43.393,37.255,36.7a2.4,2.4,0,0,0,1.556-1.843l3.41-19.34a2.4,2.4,0,0,0-.831-2.264L26.076.553A2.4,2.4,0,0,0,23.736.14L5,6.835A2.4,2.4,0,0,0,3.447,8.679L.037,28.018a2.4,2.4,0,0,0,.831,2.264l15.314,12.7a2.4,2.4,0,0,0,2.34.413Z" transform="translate(565.99 444.319)"/>
            <path id="Polygon-Copy-3" d="M346.385,723.689c-20.606,6.815-43.693,3.152-60.463-9.592L21.652,513.266C5.048,500.648-2.845,481.04.928,461.785L61.5,152.794c3.774-19.256,18.647-35.254,39.048-42L425.237,3.376c20.606-6.817,43.695-3.155,60.467,9.59L749.97,213.8c16.6,12.619,24.5,32.229,20.721,51.485l-60.567,308.99c-3.774,19.256-18.647,35.254-39.048,42Z" transform="translate(0 -233.385)" fill="none" stroke="#384a65" stroke-width="0.8" opacity="0.628"/>
          </g>
        </g>
        <g id="Stonebranch_-Home_-Product-2" data-name="Stonebranch,-Home,-Product" transform="translate(62.276 230.636)">
          <g id="Group-88" transform="translate(0.724 0.364)">
            <path id="Polygon-Copy-4" d="M325.407,5.269,592.495,103.9a80.23,80.23,0,0,1,51.1,61.535l49.671,284.049A80.77,80.77,0,0,1,666.12,524.93L448.592,709.722a79.218,79.218,0,0,1-78.792,14.01L102.712,625.1a80.23,80.23,0,0,1-51.1-61.535L1.937,279.519A80.769,80.769,0,0,1,29.086,204.07L246.615,19.278a79.218,79.218,0,0,1,78.792-14.01Z" transform="translate(-0.724 -0.364)" opacity="0.05"/>
            <path id="Polygon" d="M55.024,1.621l37,21.473A12,12,0,0,1,98,33.472V76.526a12,12,0,0,1-5.976,10.379l-37,21.473a12,12,0,0,1-12.047,0l-37-21.473A12,12,0,0,1,0,76.526V33.472A12,12,0,0,1,5.976,23.095l37-21.474a12,12,0,0,1,12.047,0Z" transform="translate(348.783 244.654) rotate(-10)" opacity="0.145"/>
            <path id="Polygon-2" data-name="Polygon" d="M11.187.315l7.6,4.322A2.4,2.4,0,0,1,20,6.725v8.582a2.4,2.4,0,0,1-1.213,2.087l-7.6,4.322a2.4,2.4,0,0,1-2.374,0l-7.6-4.322A2.4,2.4,0,0,1,0,15.305V6.723A2.4,2.4,0,0,1,1.213,4.636L8.813.314a2.4,2.4,0,0,1,2.374,0Z" transform="translate(440.708 247.525) rotate(-10)"/>
            <path id="Polygon-3" data-name="Polygon" d="M404.012,258.583a18.8,18.8,0,0,0-18.569,3.275L333.013,306a18.8,18.8,0,0,0-6.406,17.645l11.96,67.826a18.8,18.8,0,0,0,12.054,14.39l64.367,23.552a18.8,18.8,0,0,0,18.569-3.275L485.987,382a18.8,18.8,0,0,0,6.406-17.645l-11.96-67.826a18.8,18.8,0,0,0-12.054-14.39Z" transform="translate(-4.261 -0.364)" fill="none" stroke="#c9c9c9" stroke-width="0.8" opacity="0.145"/>
          </g>
        </g>
      </g>
    </g>
    <g id="Group_4" data-name="Group 4" transform="matrix(-0.819, 0.574, -0.574, -0.819, 1320.259, 770.323)">
      <g id="Group_2-2" data-name="Group 2">
        <g id="Stonebranch_-Home_-Product-3" data-name="Stonebranch,-Home,-Product" transform="translate(25.007 242.036)">
          <g id="Group-4-2" data-name="Group-4" transform="translate(773.578 483.247) rotate(180)">
            <path id="Polygon-Copy-2-2" data-name="Polygon-Copy-2" d="M18.522,43.393,37.255,36.7a2.4,2.4,0,0,0,1.556-1.843l3.41-19.34a2.4,2.4,0,0,0-.831-2.264L26.076.553A2.4,2.4,0,0,0,23.736.14L5,6.835A2.4,2.4,0,0,0,3.447,8.679L.037,28.018a2.4,2.4,0,0,0,.831,2.264l15.314,12.7a2.4,2.4,0,0,0,2.34.413Z" transform="translate(565.99 444.319)" fill="#ffc02c"/>
            <path id="Polygon-Copy-3-2" data-name="Polygon-Copy-3" d="M346.385,723.689c-20.606,6.815-43.693,3.152-60.463-9.592L21.652,513.266C5.048,500.648-2.845,481.04.928,461.785L61.5,152.794c3.774-19.256,18.647-35.254,39.048-42L425.237,3.376c20.606-6.817,43.695-3.155,60.467,9.59L749.97,213.8c16.6,12.619,24.5,32.229,20.721,51.485l-60.567,308.99c-3.774,19.256-18.647,35.254-39.048,42Z" transform="translate(0 -233.385)" fill="none" stroke="#384a65" stroke-width="0.8" opacity="0.628"/>
          </g>
        </g>
        <g id="Stonebranch_-Home_-Product-4" data-name="Stonebranch,-Home,-Product" transform="translate(62.276 230.636)">
          <g id="Group-88-2" data-name="Group-88" transform="translate(0.724 0.364)">
            <path id="Polygon-Copy-4-2" data-name="Polygon-Copy-4" d="M325.407,5.269,592.495,103.9a80.23,80.23,0,0,1,51.1,61.535l49.671,284.049A80.77,80.77,0,0,1,666.12,524.93L448.592,709.722a79.218,79.218,0,0,1-78.792,14.01L102.712,625.1a80.23,80.23,0,0,1-51.1-61.535L1.937,279.519A80.769,80.769,0,0,1,29.086,204.07L246.615,19.278a79.218,79.218,0,0,1,78.792-14.01Z" transform="translate(-0.724 -0.364)" fill="#ffc02c" opacity="0.05"/>
            <path id="Polygon-4" data-name="Polygon" d="M55.024,1.621l37,21.473A12,12,0,0,1,98,33.472V76.526a12,12,0,0,1-5.976,10.379l-37,21.473a12,12,0,0,1-12.047,0l-37-21.473A12,12,0,0,1,0,76.526V33.472A12,12,0,0,1,5.976,23.095l37-21.474a12,12,0,0,1,12.047,0Z" transform="translate(348.783 244.654) rotate(-10)" fill="#ffc02c" opacity="0.145"/>
            <path id="Polygon-5" data-name="Polygon" d="M11.187.315l7.6,4.322A2.4,2.4,0,0,1,20,6.725v8.582a2.4,2.4,0,0,1-1.213,2.087l-7.6,4.322a2.4,2.4,0,0,1-2.374,0l-7.6-4.322A2.4,2.4,0,0,1,0,15.305V6.723A2.4,2.4,0,0,1,1.213,4.636L8.813.314a2.4,2.4,0,0,1,2.374,0Z" transform="translate(440.708 247.525) rotate(-10)" fill="#ffc02c"/>
            <path id="Polygon-6" data-name="Polygon" d="M404.012,258.583a18.8,18.8,0,0,0-18.569,3.275L333.013,306a18.8,18.8,0,0,0-6.406,17.645l11.96,67.826a18.8,18.8,0,0,0,12.054,14.39l64.367,23.552a18.8,18.8,0,0,0,18.569-3.275L485.987,382a18.8,18.8,0,0,0,6.406-17.645l-11.96-67.826a18.8,18.8,0,0,0-12.054-14.39Z" transform="translate(-4.261 -0.364)" fill="none" stroke="#c9c9c9" stroke-width="0.8" opacity="0.145"/>
          </g>
        </g>
      </g>
    </g>
  </g>
</svg>
